# 
# Wavefront OBJ file
# Created with Autodesk FBX SDK
# 
mtllib antiochiatemple_rcp_mesh_low.mtl

g Tile_1_0
v -11.299366 -2.804353 362.837684
v -11.276509 -2.755783 362.820351
v -11.325577 -2.780940 362.847636
v -11.324814 -2.754596 362.844466
v -11.325577 -2.780940 362.847636
v -11.276509 -2.755783 362.820351
v -11.300671 -2.730148 362.831146
v -11.324814 -2.754596 362.844466
v -11.276509 -2.755783 362.820351
v -11.276509 -2.755783 362.820351
v -11.274853 -2.731988 362.823563
v -11.300671 -2.730148 362.831146
vt 0.514919 0.619789
vt 0.514992 0.620781
vt 0.515539 0.619855
vt 0.515764 0.620261
vt 0.515539 0.619855
vt 0.514992 0.620781
vt 0.515611 0.620891
vt 0.515764 0.620261
vt 0.514992 0.620781
vt 0.514992 0.620781
vt 0.515217 0.621135
vt 0.515611 0.620891
vn 0.438518 0.111859 0.891734
vn 0.403758 0.026220 0.914490
vn 0.442538 0.103020 0.890813
vn 0.431061 0.027967 0.901889
vn 0.442538 0.103020 0.890813
vn 0.403758 0.026220 0.914490
vn 0.361366 -0.051489 0.931001
vn 0.431061 0.027967 0.901889
vn 0.403758 0.026220 0.914490
vn 0.403758 0.026220 0.914490
vn 0.269110 -0.147187 0.951796
vn 0.361366 -0.051489 0.931001
usemtl _962f3767_f68f_4bea_a75b_f72c30de4ea3_
f 1/1/1 2/2/2 3/3/3
f 4/4/4 5/5/5 6/6/6
f 7/7/7 8/8/8 9/9/9
f 10/10/10 11/11/11 12/12/12
